<svg xmlns="http://www.w3.org/2000/svg" class="ipc-logo" width="64" height="32">
  <path d="M4 0C1.784 0 0 1.784 0 4v24c0 2.216 1.784 4 4 4h56c2.216 0 4-1.784 4-4V4c0-2.216-1.784-4-4-4H4zm4 7h5v18H8V7zm7 0h6.277344c.185134 1.0917512.378487 2.3710046.580078 3.835938l.695312 4.572265L23.671875 7H30v18h-4.228516l-.013672-12.148438L24.0625 25h-3.019531l-1.785157-11.886719L19.242188 25H15V7zm17 0h7.804688C41.569481 7 43 8.4191215 43 10.175781v11.648438C43 23.578609 41.57179 25 39.804688 25H32V7zm13 0h4.785156v5.78125c.618172-.770379 1.569775-1.273438 2.644532-1.273438H52.75c1.795192 0 3.25 1.404527 3.25 3.136719v7.216797C56 23.594402 54.545664 25 52.75 25h-.320312c-1.098447 0-2.069799-.526643-2.658204-1.332031l-.287109 1.101562H45V7zm-8.296875 3.080078v11.810547c.728633 0 1.175605-.130367 1.34375-.404297.168146-.26996.255859-1.000278.255859-2.199219v-6.978515c0-.813851-.029887-1.334193-.085937-1.564453-.05605-.23026-.18213-.396717-.384766-.503907-.198326-.10719-.577042-.160156-1.128906-.160156zm13.828125 4.208984c-.263906 0-.670829.111633-.75.298829v7.21875c.09048.205549.478554.320312.75.320312s.667058-.111093.75-.320312c.08294-.20922.125-.717643.125-1.521485v-4.265625c0-.704739-.046372-1.167969-.140625-1.380859-.09425-.21289-.470469-.349609-.734375-.34961z" fill="#f1f0e9"/>
</svg>
