<?xml version="1.0" encoding="UTF-8" standalone="no"?>
<svg
   xmlns:dc="http://purl.org/dc/elements/1.1/"
   xmlns:cc="http://creativecommons.org/ns#"
   xmlns:rdf="http://www.w3.org/1999/02/22-rdf-syntax-ns#"
   xmlns:svg="http://www.w3.org/2000/svg"
   xmlns="http://www.w3.org/2000/svg"
   xmlns:sodipodi="http://sodipodi.sourceforge.net/DTD/sodipodi-0.dtd"
   xmlns:inkscape="http://www.inkscape.org/namespaces/inkscape"
   width="485"
   height="400"
   viewBox="0 0 128.32291 105.83334"
   version="1.1"
   id="svg12"
   sodipodi:docname="into_the_francoverse.svg"
   inkscape:version="0.92.3 (2405546, 2018-03-11)">
  <metadata
     id="metadata18">
    <rdf:RDF>
      <cc:Work
         rdf:about="">
        <dc:format>image/svg+xml</dc:format>
        <dc:type
           rdf:resource="http://purl.org/dc/dcmitype/StillImage" />
      </cc:Work>
    </rdf:RDF>
  </metadata>
  <defs
     id="defs16" />
  <sodipodi:namedview
     pagecolor="#ffffff"
     bordercolor="#666666"
     borderopacity="1"
     objecttolerance="10"
     gridtolerance="10"
     guidetolerance="10"
     inkscape:pageopacity="0"
     inkscape:pageshadow="2"
     inkscape:window-width="1236"
     inkscape:window-height="675"
     id="namedview14"
     showgrid="false"
     inkscape:zoom="4.72"
     inkscape:cx="42.455937"
     inkscape:cy="36.121039"
     inkscape:window-x="492"
     inkscape:window-y="139"
     inkscape:window-maximized="0"
     inkscape:current-layer="svg12" />
  <rect
     y="100.54166"
     x="0"
     height="1.0583334"
     width="39.6875"
     id="rect838"
     style="opacity:1;fill:#45b3b1;fill-opacity:1;stroke:none;stroke-width:1.32291651;stroke-linecap:round;stroke-linejoin:round;stroke-miterlimit:50;stroke-dasharray:none;stroke-opacity:1;paint-order:fill markers stroke" />
  <rect
     style="opacity:1;fill:#e48a99;fill-opacity:1;stroke:none;stroke-width:1.32291651;stroke-linecap:round;stroke-linejoin:round;stroke-miterlimit:50;stroke-dasharray:none;stroke-opacity:1;paint-order:fill markers stroke"
     id="rect834"
     width="39.6875"
     height="1.0583334"
     x="0"
     y="102.65833" />
  <rect
     y="104.77499"
     x="0"
     height="1.0583334"
     width="39.6875"
     id="rect830"
     style="opacity:1;fill:#9c83c6;fill-opacity:1;stroke:none;stroke-width:1.32291651;stroke-linecap:round;stroke-linejoin:round;stroke-miterlimit:50;stroke-dasharray:none;stroke-opacity:1;paint-order:fill markers stroke" />
  <g
     font-weight="400"
     word-spacing="0"
     font-family="Gravitas One"
     fill="#f1f0e9"
     id="g10">
    <path
       d="M2.6384381 10.005616q-.3312327 0-.6396214-.062785-.3083887-.0684835-.5425356-.211304-.234148-.1484774-.3769208-.3769177-.14277184-.2284299-.14277184-.5596678 0-.3312276.14277184-.5596679.1427728-.2341489.3769208-.3769177.2341469-.1484877.5425356-.2113039.3083887-.068483.6396214-.068483.325522 0 .6339107.068483.3083887.062785.5425366.2113039.2341469.1427688.3769198.3712091.1427728.2284299.1427728.5596678 0 .3312276-.1427728.5653765-.1427729.2284403-.3769198.3769177-.2341479.1427791-.5425366.2113039-.3083887.0627851-.6339107.0627851zM-1.6e-7 16.527473h.9994079V10.9936H-1.7e-7v-.41119H4.3973973v5.945063h.9994089v.41118H-1.7e-7zm6.14219376 0h.9994089V10.9936h-.9994089v-.41119h4.3973984v.731001q.182749-.222722.43974-.399763.262702-.177042.576801-.296965.3141-.125643.668177-.188459.359787-.06278.736707-.06278.776682 0 1.279243.205595.50827.199887.799526.576804.291257.371209.405475.908032.114218.531114.114218 1.187871v3.283773h.999409v.411181h-4.968489v-.411181h.57109v-3.283773q0-.588222-.03426-.959431-.03426-.376928-.119929-.588232-.08566-.217012-.228436-.296965-.142773-.08568-.359788-.08568-.217013 0-.38263.09138-.165616.09138-.279834.256994-.108507.165613-.165617.394054-.0514.22844-.0514.496851v3.974793h.56538v.41118H6.1421957zM17.869656 10.9936h-.999409v-.41119h.999409q.576801 0 1.033673-.194168.462584-.199876.782394-.5139774.325522-.3198102.496849-.7138642.171328-.3940541.171328-.7881082h.913744V10.58241h1.838913v.41119h-1.838913v3.517923q0 .611067.06282.999402.06854.382636.18846.599649.125641.217012.291257.296965.171327.07428.37692.07428.199881 0 .388341-.08568.188461-.09138.331232-.285547.142773-.199887.228437-.513989.08566-.31981.08566-.782389 0-.108506-.0057-.222721-.0057-.119934-.01714-.245577h.479717q.01714.285548.01714.519697 0 .713864-.199881 1.165026-.194171.445453-.559669.696728-.365499.251285-.890902.342655-.519693.09138-1.170736.09138-.730996 0-1.290665-.142768-.559669-.142769-.942299-.451162-.382631-.314101-.576801-.805234-.194171-.491143-.194171-1.19358zm6.43345 2.769786q0-.736699.268412-1.359194.268413-.622484.805239-1.073645.536825-.456881 1.347774-.708156.810949-.256994 1.896021-.256994 1.085072 0 1.890309.256994.81095.251275 1.347774.708156.536826.451161.805239 1.073645.268412.622495.268412 1.359194 0 .736709-.268412 1.359204-.268413.616775-.805239 1.073645-.536824.451162-1.347774.708156-.805237.251275-1.890309.251275t-1.896021-.251275q-.810949-.256994-1.347774-.708156-.536826-.45687-.805239-1.073645-.268412-.622495-.268412-1.359204zm4.317446 3.038207q.217014 0 .371209-.142779.154194-.142769.251279-.491133.09709-.348364.137062-.930877.04569-.588221.04569-1.473418 0-.890896-.04569-1.473408-.03997-.588222-.137062-.936596-.09709-.348364-.251279-.491133-.154195-.142769-.371209-.142769-.222725 0-.37692.142769-.154195.142769-.25128.491133-.09709.348374-.142773.936596-.03997.582512-.03997 1.473408 0 .885197.03997 1.473418.04569.582513.142773.930877.09709.348364.25128.491133.154195.142779.37692.142779zM38.877567 10.9936h-.999409v-.41119h.999409q.576801 0 1.033673-.194168.462584-.199876.782395-.5139774.325522-.3198102.496848-.7138642.171328-.3940541.171328-.7881082h.913744V10.58241h1.838913v.41119h-1.838913v3.517923q0 .611067.06282.999402.06853.382636.188459.599649.125641.217012.291257.296965.171327.07428.37692.07428.199881 0 .388341-.08568.188461-.09138.331233-.285547.142772-.199887.228436-.513989.08566-.31981.08566-.782389 0-.108506-.0057-.222721-.0057-.119934-.01714-.245577h.479717q.01714.285548.01714.519697 0 .713864-.199881 1.165026-.194171.445453-.559669.696728-.365499.251285-.890902.342655-.519692.09138-1.170735.09138-.730997 0-1.290666-.142768-.559669-.142769-.942299-.451162-.382631-.314101-.576801-.805234-.194171-.491143-.194171-1.19358zm6.382052 5.533873h.999408V8.7149475h-.999408v-.4111801h4.397398v3.0096436q.182749-.222722.43974-.399763.262701-.177042.576802-.296965.314099-.125643.668175-.188459.359788-.06278.736707-.06278.776684 0 1.279243.205595.508271.199887.799528.576804.291256.371209.405474.908032.114218.531114.114218 1.187871v3.283773h.999408v.411181h-4.968488v-.411181h.571091v-3.283773q0-.588222-.03426-.959431-.03426-.376928-.119928-.588232-.08566-.217012-.228437-.296965-.142772-.08568-.359787-.08568t-.382631.09138q-.165616.09138-.279834.256994-.108508.165613-.165616.394054-.0514.22844-.0514.496851v3.974793h.565381v.41118h-4.962784zm11.104974-2.826903q0-.765263.314101-1.382039.314099-.616775.868057-1.050811.559669-.434025 1.319219-.668174.765263-.234149 1.656164-.234149.68531 0 1.239269.13706.559668.137071.987984.376928.434025.234139.742418.559668.314102.325519.513978.702437.205595.376917.302684.793817.09708.41119.09708.828079h-4.580143q0 .873769.07424 1.42202.07995.54825.245569.862341.171327.308393.434029.422608.268412.114225.645335.114225.479715 0 .902323-.119934.422598-.119923.753835-.336946.336947-.222721.559668-.531114.222722-.314091.302674-.702437h.536833q-.05709.531114-.325529.953722-.268411.416899-.713854.708156-.439744.291256-1.039393.445442-.593931.154197-1.302086.154197-1.113622 0-1.964547-.22843-.845211-.234149-1.416302-.673893-.571091-.445453-.862347-1.085074-.291257-.645329-.291257-1.467699zm5.065572-.513978q-.0171-.713864-.06848-1.187871-.05139-.474007-.148487-.759554-.09708-.285548-.239858-.399763-.142772-.119924-.342653-.119924-.199883 0-.348366.119924-.142773.114215-.239858.399763-.09709.285547-.148483.759554-.0514.474007-.06282 1.187871z"
       aria-label="into the"
       font-size="11.28888893"
       letter-spacing="-.00264583"
       stroke-width=".25537515"
       id="path2"
       style="fill:#f1f0e9;fill-opacity:1" />
    <path
       d="M-6e-8 39.391295H1.8301332v-13.17696H-6e-8v-.81572H15.707772v5.58452h-.711138l-2.949129-4.7688H9.046087v7.00679h1.683723l1.275864-3.4511h.679764v7.7493h-.679764l-1.275864-3.47202H9.046087v5.34399h2.614476v.82617H-6e-8zm17.32539906.0732h1.830133v-10.13371h-1.830133v-.75297h8.052586v1.33862q.334653-.40786.794801-.7216.460148-.32419 1.014417-.54381.564726-.23007 1.202659-.34511.64839-.1255 1.338611-.1255.721596 0 1.29678.17779.575185.17778.983043.49152.407859.30328.617017.73205.219616.41832.219616.90984 0 .47061-.240532.88892-.230074.41832-.64839.73206-.407858.31373-.962127.50198-.554269.17778-1.181743.17778-.627475 0-1.181744-.17778-.554268-.18825-.972585-.50198-.407858-.31374-.64839-.73206-.240532-.41831-.240532-.88892 0-.24053.06275-.4706.0732-.24054.188242-.44969-.219616.10457-.512437.32419-.282364.20916-.533353.5229-.25099.31373-.428774.73205-.167327.40786-.167327.88892v7.42511h2.028834v.75297h-10.08142zm17.095329-1.987q0-.80526.303279-1.38044.303279-.58564.857548-.98305.554269-.40785 1.328154-.64839.773885-.25098 1.715096-.38694.951669-.13595 2.039291-.17778 1.087622-.0523 2.258908-.0523v-.58564q0-1.33862-.188243-2.14387-.177784-.80526-.554268-1.23404-.366027-.42877-.909838-.55427-.543811-.13595-1.265407-.13595-.386942 0-.826174.0627-.428774.0627-.763427.14641.481064.0523.888922.24053.407858.18824.700679.47061.292822.28236.44969.62747.167327.34511.167327.70068 0 .43923-.219616.82618-.219616.38694-.606559.67976-.386942.28236-.899379.44969-.512438.16733-1.09808.16733-.585643 0-1.09808-.16733-.50198-.16733-.888922-.44969-.376485-.29282-.596101-.67976-.219616-.38695-.219616-.82618 0-.58564.313738-1.05625.324195-.4706.868006-.82617.554269-.36603 1.29678-.62748.752969-.26144 1.610517-.42877.857548-.16733 1.777844-.24053.930753-.0837 1.851049-.0837 1.631433 0 2.834092.23008 1.213117.21961 2.007917.7948.805259.56473 1.202659 1.55823.397401.98304.397401 2.49944v4.38186q0 .78434.156868 1.21311.167327.41832.606559.41832.219616 0 .355568-.13595.146411-.14641.219616-.37649.08366-.23007.115037-.53335.03137-.30328.03137-.61702v-1.03533h.930753v1.03533q0 .83664-.219616 1.41182-.209158.57519-.742511.93075-.522895.35557-1.411817.50198-.878464.15687-2.217075.15687-.679764 0-1.275865-.0732-.585642-.0732-1.077164-.25099-.481064-.17779-.836632-.47061-.355569-.29282-.564727-.73205-.313737.48106-.836632.78434-.522896.29282-1.129454.46015-.606558.16733-1.223575.21962-.617016.0627-1.129453.0627-1.223575 0-2.081123-.26145-.857548-.25098-1.390902-.67976-.533353-.42877-.773885-.9935-.240531-.57518-.240531-1.20266zm6.03421-.11504q0 .77389.282364 1.25495.282363.47061.930753.47061.543811 0 .89938-.38694.355569-.3974.355569-1.05625v-2.83409q-.752969 0-1.234033.13595-.481064.13595-.763427.43923-.271905.29282-.376485.78434-.09412.49152-.09412 1.1922zm12.713465 2.10204h1.830134v-10.13371h-1.830134v-.75297h8.052586v1.33862q.334653-.40786.805259-.73206.481064-.32419 1.056248-.54381.575185-.23007 1.223575-.34511.658848-.11504 1.34907-.11504 1.422275 0 2.34257.37649.930754.36603 1.464107 1.05625.533353.67976.742511 1.6628.209158.97259.209158 2.17525v6.01329h1.830133v.75297h-9.098376v-.75297h1.04579v-6.01329q0-1.07717-.06275-1.75693-.06275-.69022-.219616-1.07716-.156869-.3974-.418316-.54381-.261448-.15687-.658848-.15687-.397401 0-.70068.16732-.303279.16733-.512437.47061-.1987.30328-.303279.72159-.09412.41832-.09412.90984v7.2787h1.035333v.75297h-9.087919zm20.337278-5.17666q0-1.36998.554269-2.49944.554269-1.12945 1.526854-1.92425.983043-.80526 2.321655-1.24449 1.338611-.43924 2.917755-.43924 1.987002 0 3.409276.3242 1.422275.31374 2.332113.82617.920296.51244 1.34907 1.15037.428774.63794.428774 1.26541 0 .46015-.230074.86801-.219616.40785-.617016.71113-.386943.30328-.909838.48107-.522895.17778-1.129454.17778-.606558 0-1.139911-.16733-.533353-.17778-.930754-.4706-.386942-.30328-.617016-.70068t-.230074-.85755q0-.42877.1987-.80526.209158-.38694.564727-.67976.366027-.29282.84709-.48106.491522-.18825 1.056249-.21962-.596101-.21962-1.181744-.33465-.575184-.1255-1.066706-.1255-.805258 0-1.390901.21962-.585643.20916-.972585.7948-.376485.57518-.564727 1.60006-.188242 1.02487-.188242 2.64585 0 1.60006.135953 2.60402.14641 1.00395.449689 1.57914.313738.56473.794801.77388.491522.20916 1.181743.20916.878464 0 1.652349-.21961.773885-.21962 1.380443-.61702.617017-.40786 1.024875-.97259.407858-.57518.554269-1.28632h.983043q-.104579.97259-.596101 1.74647-.491521.76343-1.307238 1.29678-.805258.53336-1.903338.81572-1.087622.28236-2.384402.28236-2.039292 0-3.597519-.41831-1.54777-.42878-2.59356-1.23404-1.045791-.81571-1.579144-1.987-.533353-1.18174-.533353-2.68768zm16.603805.11504q0-1.34907.491522-2.48898.491521-1.13992 1.474564-1.96609.983043-.83663 2.468066-1.29678 1.485022-.47061 3.472024-.47061 1.986998 0 3.461568.47061 1.48502.46015 2.46806 1.29678.98305.82617 1.47457 1.96609.49152 1.13991.49152 2.48898 0 1.34907-.49152 2.48898-.49152 1.12945-1.47457 1.96608-.98304.82618-2.46806 1.29678-1.47457.46015-3.461568.46015-1.987002 0-3.472024-.46015-1.485023-.4706-2.468066-1.29678-.983043-.83663-1.474564-1.96608-.491522-1.13991-.491522-2.48898zm7.906176 5.5636q.3974 0 .679764-.26145.282363-.26144.460147-.89937.177785-.63794.25099-1.70464.08366-1.07717.08366-2.69814 0-1.63144-.08366-2.69814-.07321-1.07717-.25099-1.7151-.177784-.63793-.460147-.89938-.282364-.26145-.679764-.26145-.407858 0-.690222.26145-.282363.26145-.460148.89938-.177784.63793-.261447 1.7151-.07321 1.0667-.07321 2.69814 0 1.62097.07321 2.69814.08366 1.0667.261447 1.70464.177785.63793.460148.89937.282364.26145.690222.26145z"
       aria-label="Franco"
       font-size="21.41778755"
       letter-spacing="-.00334651"
       stroke-width=".26458338"
       id="path4"
       style="fill:#f1f0e9;fill-opacity:1" />
    <path
       d="M64.082877 78.7486q0-1.400865.574983-2.52993.574984-1.129057 1.589045-1.923575 1.024516-.794528 2.414931-1.223152 1.400869-.428624 3.031731-.428624 1.25451 0 2.268571.250902 1.024516.250901 1.808585.689983.794523.428624 1.359052 1.024513.574983.595898.940882 1.285872.376353.689984.554075 1.453146.177722.752704.177722 1.515867h-8.384305q0 1.599494.135905 2.6031.14636 1.003615.449533 1.578597.313627.564523.794523.773611.491349.209088 1.181329.209088.878157 0 1.651771-.219546.773614-.219537 1.379961-.616796.6168-.407717 1.024515-.97225.407716-.574981.554076-1.285872h.982699q-.104543.97225-.595893 1.745861-.491349.763163-1.306781 1.296331-.804976.533167-1.902672.815425-1.087242.282266-2.383568.282266-2.038578 0-3.59626-.418166-1.547229-.428624-2.592653-1.2336-1.045424-.815434-1.578591-1.986305-.533166-1.181337-.533166-2.686746zm9.272915-.940885q-.03136-1.306779-.125451-2.174476-.09409-.867706-.271811-1.390416-.177721-.52271-.439077-.731798-.261357-.219536-.627256-.219536-.365898 0-.637709.219536-.261355.209088-.439078.731798-.177722.52271-.27181 1.390416-.09409.867697-.114997 2.174476zm7.230993 6.115739h1.829493V73.793292h-1.829493v-.752705h8.049769v1.338136q.334535-.407709.794523-.72134.459986-.32408 1.014062-.543617.564529-.229994 1.202238-.344996.648163-.125451 1.338143-.125451.721343 0 1.296326.177723.574984.177723.982699.491354.407716.303173.616801.731797.219539.418166.219539.90952 0 .470438-.240447.888604-.229994.418175-.648164.731798-.407715.313631-.961791.501803-.554074.177722-1.181329.177722-.627255 0-1.18133-.177722-.554075-.188172-.972245-.501803-.407715-.313623-.648163-.731798-.240448-.418166-.240448-.888604 0-.240452.06273-.470447.07318-.240443.188176-.449531-.219539.104544-.512258.324081-.282265.209087-.533166.522718-.250903.313623-.428624.731798-.167269.407708-.167269.888604v7.422518h2.028124v.752704H80.586785zm17.00571-3.805345h.773611q.44954.794518 1.244058 1.526316.794526.721348 1.787676 1.285872 1.00361.554075 2.12221.888613 1.11861.334538 2.22676.334538.45998 0 .8886-.04185.42863-.05224.75272-.177722.32408-.1359.51225-.355436.19863-.219546.19863-.564533 0-.355445-.32408-.58544-.31362-.240443-.85725-.397259-.54362-.156816-1.25451-.261359-.70043-.104544-1.46359-.209079-1.37996-.177723-2.5822-.470447-1.20224-.292715-2.090852-.804976-.888605-.512261-1.400865-1.296321-.501803-.78407-.501803-1.944491 0-1.066336.470438-1.88177.480896-.825883 1.327695-1.379958.846787-.564533 2.007207-.84679 1.16043-.292725 2.52993-.292725.64817 0 1.30678.125451.66907.125451 1.28588.334538.62725.19863 1.18132.470438.56453.26136 1.01407.533168l1.40086-1.338144h.86771v4.118976h-.74226q-.42862-.721339-1.08724-1.338144-.64816-.616805-1.47404-1.066336-.82589-.449531-1.78768-.700432-.96179-.261359-2.00722-.261359-.51225 0-.94087.05224-.42863.05224-.74226.167273-.31363.114993-.49135.303173-.16727.188172-.16727.449531 0 .355446.26136.58544.26135.229995.77361.407708.52271.167274 1.28587.303174.76317.135908 1.77723.292724 1.28587.209088 2.39402.512261 1.10815.303173 1.91313.825883.81542.52271 1.27541 1.327686.47044.804976.47044 2.028128 0 .993148-.3868 1.798124-.37635.794527-1.12906 1.348602-.74225.554075-1.83994.84679-1.0977.303173-2.51948.303173-.66907 0-1.44268-.135899-.77362-.125451-1.53678-.365903-.7527-.250902-1.43224-.595889-.67952-.355445-1.14996-.794527l-1.829489 1.735403h-.867706zM113.54233 78.7486q0-1.400865.57498-2.52993.57499-1.129057 1.58905-1.923575 1.02452-.794528 2.41493-1.223152 1.40087-.428624 3.03173-.428624 1.25451 0 2.26857.250902 1.02452.250901 1.80859.689983.79452.428624 1.35905 1.024513.57498.595898.94088 1.285872.37635.689984.55407 1.453146.17772.752704.17772 1.515867h-8.3843q0 1.599494.1359 2.6031.14637 1.003615.44954 1.578597.31363.564523.79452.773611.49136.209088 1.18133.209088.87816 0 1.65178-.219546.77361-.219537 1.37995-.616796.61681-.407717 1.02452-.97225.40771-.574981.55407-1.285872h.9827q-.10453.97225-.59589 1.745861-.49134.763163-1.30678 1.296331-.80497.533167-1.90267.815425-1.08724.282266-2.38357.282266-2.03858 0-3.59626-.418166-1.54723-.428624-2.59266-1.2336-1.04542-.815434-1.57858-1.986305-.53317-1.181337-.53317-2.686746zm9.27291-.940885q-.0314-1.306779-.12545-2.174476-.0941-.867706-.27181-1.390416-.17772-.52271-.43907-.731798-.26136-.219536-.62726-.219536-.3659 0-.63771.219536-.26135.209088-.43908.731798-.17772.52271-.27181 1.390416-.0941.867697-.115 2.174476z"
       aria-label="erse"
       font-size="23.89166832"
       letter-spacing="-.00373307"
       fill-opacity=".97209305"
       stroke-width=".29524755"
       id="path6"
       style="fill:#f1f0e9;fill-opacity:1" />
    <path
       d="M5.9287581 51.82921H0v-3.14587h43.074243v3.14587h-7.098377l13.63211 35.2499 12.220501-32.74934q.120995-.36298.120995-.6453 0-.52431-.564643-.84697-.524312-.36298-1.532604-.56464-.967961-.24199-2.339238-.32265-1.330946-.121-2.944213-.121v-3.14587H73.36334v3.14587q-3.549188 0-5.243119.56464-1.6536.56465-2.177911 1.93592l-19.076889 51.50357H29.563127z"
       font-size="82.59929657"
       aria-label="V"
       style="font-size:82.59929657px;fill:#f1f0e9;fill-opacity:1"
       letter-spacing="-.00430205"
       stroke-width=".26458332"
       id="path8" />
  </g>
</svg>
